# xmcd CD database file
#
# Track frame offsets:
#	150
#	23870
#	58384
#	96124
#	148203
#	165544
#	190904
#	211348
#	243871
#
# Disc length: 3561 seconds
#
# Revision: 0
# Processed by: cddbd v1.5.1PL0 Copyright (c) Steve Scherf et al.
# Submitted via: CDex 1.51
#
DISCID=7f0de709
DTITLE=Options-Ughi - South of Brooklyn
DYEAR=2003
DGENRE=Jazz
TTITLE0=Letter A
TTITLE1=White
TTITLE2=Look Around
TTITLE3=Uno Fa Tanto
TTITLE4=May
TTITLE5=Claygate
TTITLE6=RRR
TTITLE7=Never There
TTITLE8=Slight
EXTD=YEAR: 2003
EXTT0=
EXTT1=
EXTT2=
EXTT3=
EXTT4=
EXTT5=
EXTT6=
EXTT7=
EXTT8=
PLAYORDER=
